<?xml version="1.0" encoding="utf-8"?>
<!-- Generator: Adobe Illustrator 23.0.1, SVG Export Plug-In . SVG Version: 6.00 Build 0)  -->
<svg version="1.1" id="Ebene_1" xmlns="http://www.w3.org/2000/svg" xmlns:xlink="http://www.w3.org/1999/xlink" x="0px" y="0px"
	 viewBox="0 0 464 180" style="enable-background:new 0 0 464 180;" xml:space="preserve">
<style type="text/css">
	.st0{fill:#00B4DC;}
</style>
<polygon class="st0" points="280.7,7.4 280.7,23.6 296.9,23.6 296.9,72.1 280.7,72.1 280.7,88.2 361.6,88.2 361.6,55.9 345.4,55.9 
	345.4,72.1 313.1,72.1 313.1,55.9 329.2,55.9 329.2,39.8 313.1,39.8 313.1,23.6 345.4,23.6 345.4,39.8 361.6,39.8 361.6,7.4 "/>
<polygon class="st0" points="65.5,7.4 38.3,39.8 38.3,7.4 6,7.4 6,23.6 22.2,23.6 22.2,72.1 6,72.1 6,88.2 38.3,88.2 38.3,55.9 
	65.5,88.2 86.8,88.2 86.8,72.1 73.1,72.1 52.8,47.8 72.9,23.6 86.8,23.6 86.8,7.4 "/>
<polygon class="st0" points="437.2,7.4 410,39.8 410,7.4 377.7,7.4 377.7,23.6 393.9,23.6 393.9,72.1 377.7,72.1 377.7,88.2 
	410,88.2 410,55.9 437.2,88.2 458.5,88.2 458.5,72.1 444.8,72.1 424.5,47.8 444.6,23.6 458.5,23.6 458.5,7.4 "/>
<polygon class="st0" points="183.8,7.4 183.8,39.8 199.9,39.8 199.9,23.6 216.1,23.6 216.1,72.1 199.9,72.1 199.9,88.2 248.4,88.2 
	248.4,72.1 232.3,72.1 232.3,23.6 248.4,23.6 248.4,39.8 264.6,39.8 264.6,7.4 "/>
<path class="st0" d="M141.3,31l10.2,25h-20.1L141.3,31z M117.1,7.4v16.2h9.7l-25.9,64.7h17.4l6.5-16.2h33.1l6.5,16.2h17.4L149.4,7.4
	H117.1z"/>
<polygon class="st0" points="6,123.3 6,127.3 10.4,127.3 10.4,154.4 6.2,154.4 6.2,158.3 33.8,158.3 33.8,148.9 29.9,148.9 
	29.7,154.3 14.7,154.3 14.7,127.3 18.9,127.3 18.9,123.3 "/>
<g>
	<path class="st0" d="M58.6,144.1C58.6,144.1,58.6,144.1,58.6,144.1l-17.1,0c0.7-4.8,4.5-7.4,8.8-7.4
		C55.1,136.8,58.4,139.3,58.6,144.1L58.6,144.1L58.6,144.1z M50.1,133.1c-7.5,0-12.8,5.3-12.8,12.8c0,7.8,5.3,12.9,13,12.9
		c3.9,0,8.2-1.4,10.7-4.4h0l-2.8-2.5c-1.6,2-5,3.1-7.8,3.1c-4.8,0-8.5-2.8-9-7.4h21C63.4,137.7,57.7,133.1,50.1,133.1"/>
	<path class="st0" d="M88.4,146.4c-0.1,4.6-3.4,8.8-9.1,8.8c-5,0-8.9-3.5-8.9-9c0-5.5,3.9-9,8.8-9C85.4,137.1,88.5,141.4,88.4,146.4
		 M92.2,154.6v-17.3h4v-3.8h-8l0,4.4c-1.8-3.2-5.5-4.8-9.2-4.8c-7.1,0-12.8,4.8-12.8,12.8c0,8.1,5.5,12.9,12.7,12.9
		c3.4,0,7.2-1.2,9.1-4.6l0.5,4h7.8v-3.7H92.2z"/>
	<path class="st0" d="M120.7,145.9c0,5.3-3.8,8.9-8.7,8.9c-4.8,0-8.8-3.3-8.8-8.9c0-5.9,3.9-9,8.7-9c0,0,0,0,0,0h0.1c0,0,0,0,0,0
		C116.8,136.9,120.7,140.6,120.7,145.9 M129,158.3v-3.7h-4.1v-31.3h-8.1v3.6h4v11.2c-1.8-3.4-5.7-4.9-9.3-4.9
		c-6.9,0-12.4,4.5-12.4,12.8c0,8.2,5.5,12.8,12.5,12.8c3.7,0,7.3-1.6,9.3-4.9l0.5,4.6H129z"/>
	<path class="st0" d="M153.3,126.4l-4.1,0.5v6.8h-4.9v3.5h4.9v13.1c0,5.4,2.5,8.6,7.8,8.4c1.6,0,3.1-0.4,4.8-1.2l-1.2-3.4
		c-1.1,0.6-2.3,0.9-3.4,0.9c-2.9,0-3.9-1.8-3.9-4.8v-13.1h7.7v-3.5h-7.6V126.4z"/>
	<path class="st0" d="M173,123.3h-8.1v3.6h4.1v27.8h-4.2v3.6H177v-3.6h-4v-9.5c0-4.6,3.3-8.1,7.9-8.1c4.4,0,6.9,2.7,6.9,7.7v9.9
		h-3.3v3.6H196v-3.6h-4.1v-10c0-6.8-3.4-11.4-10.4-11.4c-3.1,0-6.4,1.2-8.5,4.4V123.3z"/>
	<path class="st0" d="M219.1,144.1C219.1,144.1,219.1,144.1,219.1,144.1l-17.1,0c0.7-4.8,4.4-7.4,8.8-7.4
		C215.6,136.8,218.9,139.3,219.1,144.1L219.1,144.1L219.1,144.1z M210.6,133.1c-7.5,0-12.8,5.3-12.8,12.8c0,7.8,5.3,12.9,13,12.9
		c3.8,0,8.1-1.4,10.6-4.4h0.1l-2.8-2.5c-1.6,2-5.1,3.1-7.9,3.1c-4.8,0-8.5-2.8-8.9-7.4h21C223.9,137.7,218.2,133.1,210.6,133.1"/>
	<path class="st0" d="M260.6,152.1c-1.7,1.9-4.3,2.7-6.7,2.7c-4.8,0-9.2-3.2-9.2-8.9c0-5.4,3.7-9.1,9-9.1c1.4,0,3.4,0.2,4.8,0.8v4.1
		h3.6l0.2-6.4c-2.6-1.4-5.6-2.3-8.7-2.3c-6.9,0-13.1,4-13.1,12.8c0,8.2,6.2,12.8,13.3,12.8c3.4,0,6.8-1.1,9.4-3.8L260.6,152.1z"/>
	<path class="st0" d="M288.1,146.4c-0.1,4.6-3.4,8.8-9.1,8.8c-5,0-8.9-3.5-8.9-9c0-5.5,3.9-9,8.8-9
		C285.1,137.1,288.3,141.4,288.1,146.4 M292,154.6v-17.3h4v-3.8h-8l0,4.4c-1.8-3.2-5.5-4.8-9.2-4.8c-7.1,0-12.8,4.8-12.8,12.8
		c0,8.1,5.6,12.9,12.7,12.9c3.4,0,7.1-1.2,9.1-4.6l0.4,4h7.8v-3.7H292z"/>
	<path class="st0" d="M308.1,126.4l-4.1,0.5v6.8h-5v3.5h5v13.1c0,5.4,2.5,8.6,7.8,8.4c1.6,0,3.1-0.4,4.8-1.2l-1.2-3.4
		c-1.1,0.6-2.4,0.9-3.5,0.9c-2.9,0-3.9-1.8-3.9-4.8v-13.1h7.7v-3.5h-7.6V126.4z"/>
	<path class="st0" d="M339.4,144.1C339.4,144.1,339.4,144.1,339.4,144.1l-17.1,0c0.7-4.8,4.5-7.4,8.8-7.4
		C335.9,136.8,339.2,139.3,339.4,144.1L339.4,144.1L339.4,144.1z M331,133.1c-7.5,0-12.8,5.3-12.8,12.8c0,7.8,5.4,12.9,13,12.9
		c3.9,0,8.1-1.4,10.6-4.4h0.1l-2.8-2.5c-1.6,2-5.1,3.1-7.9,3.1c-4.8,0-8.5-2.8-9-7.4h21C344.3,137.7,338.5,133.1,331,133.1"/>
	<path class="st0" d="M369.2,145.3c0,4.8-3.6,8.6-8.9,8.6c-5,0-9-3-9-8.6c0-5.8,4.6-8.5,9-8.5C364.9,136.8,369.2,139.6,369.2,145.3
		 M370,137.3l2.8-3.3l-2.9-2.3l-2.6,3.2c-1.8-1.3-4.8-1.9-7-1.9c-6.4,0-13.1,4.1-13.1,12.3c0,7.7,5.3,12.2,13.1,12.2
		c4.6,0,8.6,1.9,8.6,5.9c0,4.3-4.5,5.9-8.7,5.9c-4.5-0.1-8.8-2-8.8-6.8h-3.9c-0.2,6.7,5.2,10.6,12.6,10.6c6.5,0,12.9-3.3,12.9-9.6
		c0-3.6-2-6.7-6.8-8.1c4.8-1.6,6.9-5.9,6.9-10.1C373.2,141.6,372,139.4,370,137.3"/>
	<path class="st0" d="M398.8,146c0,5.2-3.7,8.9-8.8,8.9c-5.1,0-8.7-3.7-8.7-8.9c0-5.5,3.7-9.2,8.8-9.2
		C395,136.8,398.8,140.5,398.8,146 M402.9,146c0-7.6-5.3-12.9-12.9-12.9c-7.4,0-12.8,5.3-12.8,12.9c0,7.5,5.4,12.8,12.8,12.8
		C397.5,158.8,402.9,153.5,402.9,146"/>
	<path class="st0" d="M405.7,133.6v3.6h4v17.5h-4.1v3.6h12.3v-3.6h-4v-10.2c0-4.7,2.6-7.3,7.3-7.4c1.6,0,3,0.5,4.3,1.3l1.8-3.5
		c-1.7-1.1-3.6-1.8-5.8-1.8c-3.1,0-6.1,1.1-7.7,3.8l-0.5-3.3H405.7z"/>
	<path class="st0" d="M429.8,137.2h3.5l8.8,20.8l-2.3,5.9c-1.4,3-4,2.4-6.4,1.1l-1.6,3.4c4.9,2.8,9.6,2.2,11.9-3.3l11.6-27.9h3.3
		v-3.6h-11.6v3.6h3.9l-3.7,9.4l-2.5,7l-2.7-7.1l-4-9.3h3.2v-3.6h-11.3V137.2z"/>
</g>
</svg>
